<?xml version="1.0" standalone="no"?>
<!DOCTYPE svg PUBLIC "-//W3C//DTD SVG 20010904//EN"
 "http://www.w3.org/TR/2001/REC-SVG-20010904/DTD/svg10.dtd">
<svg version="1.0" xmlns="http://www.w3.org/2000/svg"
 width="50.000000pt" height="50.000000pt" viewBox="0 0 50.000000 50.000000"
 preserveAspectRatio="xMidYMid meet">

<g transform="translate(0.000000,50.000000) scale(0.100000,-0.100000)"
fill="#003049" stroke="none">
<path d="M164 459 c-4 -7 2 -20 14 -30 27 -21 31 -99 7 -119 -8 -7 -17 -27
-21 -44 -5 -27 -10 -32 -27 -29 -28 5 -103 -62 -112 -100 -18 -72 25 -106 145
-114 63 -5 84 -2 123 15 26 12 50 28 53 36 3 9 14 16 23 16 10 0 25 16 35 38
32 66 76 200 76 230 0 35 -31 67 -59 59 -16 -4 -19 0 -18 22 l2 26 -117 3
c-82 2 -119 -1 -124 -9z m218 -66 c-3 -32 -10 -61 -16 -65 -13 -9 -108 -10
-130 -2 -12 4 -16 20 -16 55 0 35 -5 51 -17 58 -13 8 9 10 83 11 l101 0 -5
-57z m72 -9 c9 -23 7 -49 -4 -79 l-10 -27 -20 25 c-11 14 -20 36 -20 49 0 41
41 66 54 32z m-48 -99 c19 -26 17 -55 -7 -120 -22 -58 -43 -71 -53 -31 -8 33
-84 92 -128 100 -41 7 -46 20 -24 51 12 18 25 20 106 19 78 0 95 -3 106 -19z
m-232 -112 c21 -41 25 -44 26 -23 0 14 -7 36 -16 48 -14 20 -14 22 5 22 13 0
26 -15 42 -47 12 -26 24 -42 26 -36 3 7 -3 25 -12 42 -21 41 -9 39 43 -8 51
-47 56 -82 15 -108 -36 -24 -183 -25 -228 -3 -39 20 -45 64 -15 103 27 34 43
34 60 0 7 -17 14 -23 17 -15 3 7 -2 24 -11 37 -21 31 -20 35 4 35 13 0 27 -15
44 -47z"/>
</g>
</svg>
